# xmcd
#
# Track frame offsets: 
#        150
#        15750
#        35474
#        53153
#        61034
#        76654
#        99081
#        116767
#        136125
#        156718
#        173504
#        180678
#        199117
#        220977
#        242942
#
# Disc length: 4027 seconds
#
# Revision: 0
# Processed by: cddbd v1.5.2PL0 Copyright (c) Steve Scherf et al.
# Submitted via: ExactAudioCopy v0.99pb4
#
DISCID=bb0fb90f
DTITLE=Coop Deville - Truth, Lies, and Relations
DYEAR=2007
DGENRE=R&B
TTITLE0=Get This Money
TTITLE1=Can't Get Enough
TTITLE2=I Don't Wanna
TTITLE3=Teaser 1
TTITLE4=Apologize
TTITLE5=I Wish
TTITLE6=Ex Girlfriend
TTITLE7=Crush On You
TTITLE8=One Two (Coming 4 You)
TTITLE9=The Room
TTITLE10=Teaser 2
TTITLE11=Here Comes The Rain
TTITLE12=Wanna Be Your Man
TTITLE13=Truth, Lies, and Relations
TTITLE14=Radio
EXTD=
EXTT0=
EXTT1=
EXTT2=
EXTT3=
EXTT4=
EXTT5=
EXTT6=
EXTT7=
EXTT8=
EXTT9=
EXTT10=
EXTT11=
EXTT12=
EXTT13=
EXTT14=
PLAYORDER=
